<?xml version="1.0" standalone="no"?>
<!DOCTYPE svg PUBLIC "-//W3C//DTD SVG 20010904//EN"
 "http://www.w3.org/TR/2001/REC-SVG-20010904/DTD/svg10.dtd">
<svg version="1.0" xmlns="http://www.w3.org/2000/svg"
 width="2725.000000pt" height="2725.000000pt" viewBox="0 0 2725.000000 2725.000000"
 preserveAspectRatio="xMidYMid meet">
<metadata>
Created by potrace 1.14, written by Peter Selinger 2001-2017
</metadata>
<g transform="translate(0.000000,2725.000000) scale(0.100000,-0.100000)"
fill="#000000" stroke="none">
<path d="M9405 27240 c-837 -46 -1607 -171 -2325 -377 -1776 -508 -3285 -1480
-4430 -2853 -279 -335 -599 -801 -713 -1037 -22 -46 -43 -83 -46 -83 -4 0
-126 36 -272 81 -490 149 -843 239 -935 239 -210 -1 -346 -275 -411 -825 -22
-189 -25 -917 -5 -1175 68 -864 197 -1651 408 -2495 378 -1507 928 -2695 1538
-3324 124 -128 250 -236 359 -310 59 -39 592 -340 844 -476 l52 -27 -35 -97
c-49 -138 -180 -398 -264 -526 -247 -376 -565 -659 -969 -864 -234 -119 -443
-192 -722 -255 -208 -47 -290 -86 -399 -196 -128 -128 -193 -280 -194 -460 -1
-118 14 -180 71 -299 36 -75 59 -108 117 -165 130 -129 258 -186 438 -194 117
-5 192 8 448 74 391 102 780 263 1105 459 662 399 1195 1015 1511 1742 34 80
64 147 67 149 4 4 1242 -608 1254 -620 9 -8 -18 -118 -59 -241 -77 -235 -235
-521 -399 -722 -344 -422 -841 -742 -1479 -952 -227 -74 -372 -213 -447 -426
-24 -71 -27 -93 -27 -205 0 -109 3 -136 27 -206 66 -198 217 -350 419 -421 64
-23 90 -27 203 -27 l130 -1 195 66 c440 150 787 319 1140 554 413 275 783 640
1046 1030 192 285 357 620 445 905 13 41 24 76 24 77 1 1 149 -64 330 -146
182 -81 452 -200 601 -265 l271 -118 -14 -76 c-23 -120 -78 -275 -153 -427
-121 -247 -266 -444 -489 -665 -339 -336 -770 -611 -1330 -849 -100 -43 -197
-92 -230 -116 -124 -92 -212 -224 -251 -379 -83 -331 112 -678 440 -780 218
-68 350 -40 810 173 610 283 1115 633 1535 1062 413 423 692 870 865 1387 27
79 51 146 54 149 2 3 164 -58 358 -135 754 -299 1547 -597 1559 -585 12 13
3579 6832 3579 6843 0 5 -15 16 -32 24 -18 7 -188 82 -378 166 -440 194 -900
392 -1710 735 -711 301 -771 327 -1205 520 -1465 651 -5232 2064 -8135 3051
-223 75 -409 141 -414 145 -10 9 145 248 272 419 402 542 913 1052 1477 1473
1178 881 2561 1392 4145 1531 623 55 1552 48 2480 -19 4019 -292 7678 -1624
10230 -3724 775 -638 1461 -1355 2011 -2101 929 -1261 1536 -2620 1874 -4194
34 -159 53 -227 81 -281 77 -158 216 -278 389 -336 60 -21 88 -24 205 -23 120
0 143 3 208 26 103 37 175 82 251 159 125 125 182 256 189 435 5 123 -3 170
-89 544 -724 3149 -2624 5795 -5534 7705 -1988 1306 -4456 2265 -7110 2765
-1070 202 -2070 317 -3280 381 -259 13 -1376 20 -1570 9z m-3864 -7148 c343
-91 608 -300 764 -603 94 -183 129 -328 129 -539 0 -212 -35 -356 -130 -542
-166 -320 -480 -552 -832 -613 -108 -19 -305 -19 -414 0 -362 63 -683 304
-846 636 -75 155 -110 289 -119 464 -17 330 106 647 341 881 173 173 385 285
619 330 108 20 388 12 488 -14z"/>
<path d="M14483 13912 c-970 -1853 -1763 -3372 -1763 -3375 0 -6 -2 -6 530
-187 542 -184 1160 -386 2170 -710 432 -138 945 -306 1140 -372 195 -66 362
-120 370 -121 15 -2 5899 4092 5900 4104 0 8 -344 295 -550 459 -1268 1009
-3006 2077 -5020 3085 -340 170 -970 475 -994 480 -19 5 -202 -340 -1783
-3363z"/>
<path d="M20957 10344 l-2835 -1977 64 -77 c346 -419 527 -969 485 -1470 -26
-302 -111 -581 -251 -821 -23 -39 -40 -72 -38 -73 10 -9 5378 -2486 5387
-2486 13 0 99 106 247 305 1230 1649 1827 3776 1538 5475 -34 199 -103 475
-164 655 -218 638 -658 1371 -1233 2050 -151 178 -347 395 -357 395 -4 0
-1283 -889 -2843 -1976z"/>
<path d="M6895 5485 c-149 -28 -252 -82 -361 -190 -115 -114 -181 -242 -203
-398 -7 -47 20 -553 114 -2157 69 -1152 127 -2115 131 -2140 51 -368 407 -642
766 -592 58 9 727 216 2260 702 1198 380 2189 695 2202 700 16 6 101 -4 272
-31 750 -117 2065 -291 2082 -274 4 4 -551 3147 -575 3250 -4 21 -10 20 -446
-37 -243 -31 -629 -83 -857 -114 -228 -31 -428 -57 -445 -57 -16 0 -1072 299
-2345 666 -1273 367 -2342 672 -2375 677 -77 13 -133 11 -220 -5z"/>
<path d="M17185 4981 c-211 -95 -938 -238 -1935 -381 -201 -29 -366 -53 -367
-54 -5 -4 634 -3556 640 -3563 4 -4 94 -12 200 -19 2702 -169 4700 69 5912
705 193 102 360 200 550 325 158 104 481 342 568 418 l37 33 -2759 1275
c-1518 701 -2771 1276 -2783 1277 -13 1 -41 -6 -63 -16z"/>
</g>
</svg>
